<svg width="56" height="57" viewBox="0 0 56 57" fill="none" xmlns="http://www.w3.org/2000/svg">
<rect x="4" y="4.57129" width="48" height="48" rx="24" fill="#D3F8DF"/>
<rect x="4" y="4.57129" width="48" height="48" rx="24" stroke="#EDFCF2" stroke-width="8"/>
<path d="M37.2104 32.4613C36.5742 33.9658 35.5792 35.2915 34.3123 36.3226C33.0454 37.3537 31.5452 38.0587 29.9428 38.3761C28.3405 38.6934 26.6848 38.6134 25.1205 38.1431C23.5563 37.6727 22.131 36.8264 20.9694 35.6779C19.8078 34.5295 18.9452 33.114 18.457 31.5552C17.9689 29.9964 17.87 28.3418 18.169 26.7359C18.468 25.1301 19.1559 23.6219 20.1724 22.3433C21.189 21.0647 22.5033 20.0546 24.0004 19.4013M38.0004 28.5713C38.0004 27.2581 37.7417 25.9577 37.2392 24.7445C36.7367 23.5312 36.0001 22.4288 35.0715 21.5002C34.1429 20.5716 33.0405 19.835 31.8272 19.3325C30.614 18.8299 29.3136 18.5713 28.0004 18.5713V28.5713H38.0004Z" stroke="#099250" stroke-width="2" stroke-linecap="round" stroke-linejoin="round"/>
</svg>