<svg width="56" height="57" viewBox="0 0 56 57" fill="none" xmlns="http://www.w3.org/2000/svg">
<rect x="4" y="4.57129" width="48" height="48" rx="24" fill="#D3F8DF"/>
<rect x="4" y="4.57129" width="48" height="48" rx="24" stroke="#EDFCF2" stroke-width="8"/>
<path d="M33 37.5713V35.5713C33 34.5104 32.5786 33.493 31.8284 32.7429C31.0783 31.9927 30.0609 31.5713 29 31.5713H21C19.9391 31.5713 18.9217 31.9927 18.1716 32.7429C17.4214 33.493 17 34.5104 17 35.5713V37.5713M39 37.5713V35.5713C38.9993 34.685 38.7044 33.8241 38.1614 33.1236C37.6184 32.4231 36.8581 31.9229 36 31.7013M32 19.7013C32.8604 19.9216 33.623 20.422 34.1676 21.1236C34.7122 21.8252 35.0078 22.6881 35.0078 23.5763C35.0078 24.4645 34.7122 25.3274 34.1676 26.029C33.623 26.7306 32.8604 27.231 32 27.4513M29 23.5713C29 25.7804 27.2091 27.5713 25 27.5713C22.7909 27.5713 21 25.7804 21 23.5713C21 21.3621 22.7909 19.5713 25 19.5713C27.2091 19.5713 29 21.3621 29 23.5713Z" stroke="#099250" stroke-width="2" stroke-linecap="round" stroke-linejoin="round"/>
</svg>